<svg width="26" height="23" viewBox="0 0 26 23" fill="none" xmlns="http://www.w3.org/2000/svg">
<path id="Vector" d="M13 0.388916C9.9796 0.388916 7.53125 2.83727 7.53125 5.85767C7.53125 8.29951 11.1055 12.75 12.4748 14.3655C12.7522 14.6927 13.2483 14.6927 13.5252 14.3655C14.8945 12.75 18.4688 8.29951 18.4688 5.85767C18.4688 2.83727 16.0204 0.388916 13 0.388916ZM1.37326 9.76175C1.11553 9.86483 0.894588 10.0428 0.738936 10.2726C0.583285 10.5025 0.500062 10.7737 0.5 11.0512L0.5 21.9158C0.5 22.4071 0.996094 22.7431 1.45226 22.5608L7.44444 19.8334V9.71704C7.06076 9.02346 6.74696 8.34812 6.52214 7.70228L1.37326 9.76175ZM13 15.9996C12.3893 15.9996 11.8116 15.7314 11.4154 15.2635C10.5621 14.2565 9.65451 13.1098 8.83333 11.9336V19.8329L17.1667 22.6107V11.9341C16.3455 13.1098 15.4384 14.257 14.5846 15.2639C14.1884 15.7314 13.6107 15.9996 13 15.9996ZM24.5477 7.38371L18.5556 10.1111V22.6111L24.6267 20.1828C24.8845 20.0797 25.1055 19.9018 25.2611 19.6719C25.4168 19.4421 25.5 19.1709 25.5 18.8933V8.02867C25.5 7.53735 25.0039 7.20142 24.5477 7.38371Z" fill="#A6A6A6"/>
</svg>
